<svg width="127" height="24" viewBox="0 0 127 24" fill="none" xmlns="http://www.w3.org/2000/svg">
<path d="M11.0934 6.17141L0.659347 16.6728L6.21631 22.2656L16.6504 11.7642L11.0934 6.17141Z" fill="#769AF2"/>
<path d="M62.9701 16.7558L52.536 6.25438L46.979 11.8472L57.4131 22.3486L62.9701 16.7558Z" fill="#769AF2"/>
<path d="M50.7083 20.3578C48.5319 22.6101 45.6386 23.8506 42.5612 23.8506C39.4837 23.8506 36.5905 22.6101 34.4144 20.3582C34.4144 20.3578 23.6627 9.22448 23.6627 9.22448C22.2235 7.73528 19.8823 7.73528 18.4435 9.22448C17.7463 9.94569 17.3626 10.9051 17.3626 11.9253C17.3626 12.9456 17.7463 13.9049 18.4435 14.6262C19.163 15.3709 20.108 15.7432 21.0529 15.7432C21.9978 15.7432 22.9431 15.3706 23.6623 14.6262L24.4254 13.8363L29.9617 19.5694L29.2 20.3578C27.0239 22.6101 24.1307 23.8506 21.0529 23.8506C17.9754 23.8506 15.0818 22.6101 12.9058 20.3578C10.7297 18.1052 9.53125 15.1106 9.53125 11.9253C9.53125 8.74004 10.7297 5.74509 12.9058 3.49281C15.0818 1.24053 17.9754 5.53131e-05 21.0529 5.53131e-05C24.1304 5.53131e-05 27.0236 1.24018 29.1997 3.49246L37.3427 11.9246L39.9439 14.6184L39.9514 14.6262C41.3906 16.1154 43.7318 16.1154 45.1706 14.6262C45.8677 13.9049 46.2515 12.9456 46.2515 11.9253C46.2515 10.9051 45.8677 9.94569 45.1706 9.22448C43.7318 7.73528 41.3906 7.73528 39.9514 9.22448L39.1883 10.0143L33.652 4.28122L34.4141 3.49281C36.5901 1.24053 39.4834 5.53131e-05 42.5608 5.53131e-05C45.6383 5.53131e-05 48.5319 1.24053 50.7079 3.49281C52.8843 5.74509 54.0828 8.74004 54.0828 11.9253C54.0828 15.1106 52.8843 18.1052 50.7083 20.3578Z" fill="#4A74EA"/>
<path d="M76.194 19C75.426 19 74.6872 18.8779 73.9778 18.6336C73.2683 18.3893 72.65 18.039 72.1228 17.5826C71.6021 17.1263 71.2278 16.5895 71 15.9725L73.7532 14.9697C73.8183 15.1625 73.9647 15.3457 74.1925 15.5193C74.4269 15.6928 74.7165 15.8343 75.0615 15.9435C75.4129 16.0528 75.7904 16.1074 76.194 16.1074C76.5845 16.1074 76.9523 16.0528 77.2972 15.9435C77.6487 15.8278 77.9286 15.6703 78.1369 15.4711C78.3516 15.2654 78.459 15.034 78.459 14.7769C78.459 14.404 78.241 14.1116 77.8049 13.8994C77.3753 13.6873 76.8384 13.5363 76.194 13.4463C74.5798 13.2149 73.3106 12.7649 72.3864 12.0964C71.4621 11.4279 71 10.4702 71 9.22314C71 8.4068 71.2376 7.67723 71.7127 7.03444C72.1878 6.39164 72.8225 5.89348 73.6165 5.53994C74.4171 5.17998 75.2763 5 76.194 5C76.9685 5 77.7105 5.12213 78.42 5.36639C79.1294 5.61065 79.7445 5.96419 80.2652 6.427C80.7924 6.88338 81.1667 7.42332 81.388 8.04683L78.6348 9.0303C78.5697 8.83747 78.42 8.65748 78.1857 8.49036C77.9514 8.3168 77.6552 8.1786 77.2972 8.07576C76.9392 7.96648 76.552 7.91185 76.1354 7.91185C75.7644 7.91185 75.4097 7.9697 75.0712 8.0854C74.7328 8.2011 74.4562 8.3618 74.2414 8.56749C74.0331 8.76676 73.9289 8.98531 73.9289 9.22314C73.9289 9.55096 74.0233 9.80165 74.2121 9.97521C74.4073 10.1423 74.6482 10.2612 74.9345 10.332C75.2209 10.4027 75.6407 10.4766 76.194 10.5537C77.1768 10.6951 78.0555 10.9426 78.83 11.2961C79.6111 11.6497 80.2327 12.1189 80.6948 12.7039C81.1569 13.2888 81.388 13.9798 81.388 14.7769C81.388 15.5932 81.1504 16.3228 80.6753 16.9656C80.2066 17.6084 79.5753 18.1097 78.7812 18.4697C77.9872 18.8232 77.1247 19 76.194 19Z" fill="#4A74EA"/>
<path d="M83.9232 5.25069H92.6319V8.14325H86.8521V10.0716H91.3041V12.9642H86.8521V15.8567H92.6319V18.7493H83.9232V5.25069Z" fill="#4A74EA"/>
<path d="M94.9685 5.25069H97.9951L100.104 13.427L102.213 5.25069H104.907L107.016 13.427L109.125 5.25069H112.152L108.676 18.7493H105.376L103.56 11.7493L101.764 18.7493H98.4637L94.9685 5.25069Z" fill="#4A74EA"/>
<path d="M120.263 19C119.046 19 117.92 18.685 116.885 18.0551C115.857 17.4252 115.04 16.5767 114.435 15.5096C113.83 14.4362 113.527 13.2663 113.527 12C113.527 10.7337 113.83 9.56703 114.435 8.5C115.04 7.42654 115.857 6.57484 116.885 5.9449C117.92 5.31497 119.046 5 120.263 5C121.481 5 122.603 5.31497 123.632 5.9449C124.667 6.57484 125.487 7.42654 126.092 8.5C126.697 9.56703 127 10.7337 127 12C127 13.2663 126.697 14.4362 126.092 15.5096C125.487 16.5767 124.667 17.4252 123.632 18.0551C122.603 18.685 121.481 19 120.263 19ZM120.263 16.1074C120.947 16.1074 121.581 15.9242 122.167 15.5579C122.753 15.185 123.215 14.6837 123.554 14.0537C123.899 13.4238 124.071 12.7392 124.071 12C124.071 11.2608 123.899 10.5762 123.554 9.94628C123.215 9.31635 122.753 8.81818 122.167 8.45179C121.581 8.07897 120.947 7.89256 120.263 7.89256C119.58 7.89256 118.945 8.07897 118.36 8.45179C117.774 8.81818 117.308 9.31635 116.963 9.94628C116.625 10.5762 116.456 11.2608 116.456 12C116.456 12.7392 116.625 13.4238 116.963 14.0537C117.308 14.6837 117.774 15.185 118.36 15.5579C118.945 15.9242 119.58 16.1074 120.263 16.1074Z" fill="#4A74EA"/>
</svg>
