<svg width="22" height="24" viewBox="0 0 22 24" fill="none" xmlns="http://www.w3.org/2000/svg">
<g clip-path="url(#clip0_187_1728)">
<path d="M18.9015 8.45C17.939 3.83 14.2448 1.75 10.9998 1.75C10.9998 1.75 10.9998 1.75 10.9907 1.75C7.75484 1.75 4.05151 3.82 3.08901 8.44C2.01651 13.6 4.91318 17.97 7.53484 20.72C8.50651 21.74 9.75318 22.25 10.9998 22.25C12.2465 22.25 13.4932 21.74 14.4557 20.72C17.0773 17.97 19.974 13.61 18.9015 8.45ZM10.9998 13.46C9.40484 13.46 8.11234 12.05 8.11234 10.31C8.11234 8.57 9.40484 7.16 10.9998 7.16C12.5948 7.16 13.8873 8.57 13.8873 10.31C13.8873 12.05 12.5948 13.46 10.9998 13.46Z" fill="#292D32"/>
</g>
<defs>
<clipPath id="clip0_187_1728">
<rect width="22" height="24" fill="white"/>
</clipPath>
</defs>
</svg>
